<svg version="1.1" xmlns="http://www.w3.org/2000/svg" viewBox="0 0 766.3 1337"><text xml:space="preserve" style="-inkscape-font-specification:&quot;Nickname DEMO&quot;" x="180.5" y="885.9" font-size="240" font-family="Nickname DEMO" fill="none" fill-rule="evenodd" stroke-width="0" stroke-linecap="round" paint-order="stroke fill markers"/><circle cx="388.5" cy="113.6" r="396.4" fill="#fff" fill-opacity="1" fill-rule="evenodd" stroke-width="0" stroke-linecap="round" paint-order="stroke fill markers" transform="matrix(.89931 0 0 .89931 32.9 254.3)" display="inline"/><g transform="translate(-9 188.7)"><g stroke-width="2" fill="none" stroke-linecap="butt"><path stroke="#eca8a8" vector-effect="non-scaling-stroke" d="M259 0q15 29 26.3 59.5" transform="matrix(1.29927 0 0 1.29927 59.1 -165.9)"/><path stroke="#eb9f9f" vector-effect="non-scaling-stroke" d="M285.3 59.5q16 46.8 23 95.7" transform="matrix(1.29927 0 0 1.29927 59.1 -165.9)"/><path stroke="#f9f9f9" vector-effect="non-scaling-stroke" d="M308.3 155.2q-21.7 2.8-32.8 21.3" transform="matrix(1.29927 0 0 1.29927 59.1 -165.9)"/><path stroke="#b0d1e9" vector-effect="non-scaling-stroke" d="m275.5 176.5-20.8-8" transform="matrix(1.29927 0 0 1.29927 59.1 -165.9)"/><path stroke="#b7d5eb" vector-effect="non-scaling-stroke" d="M254.8 168.5q-32.6-12-66.8-17.7" transform="matrix(1.29927 0 0 1.29927 59.1 -165.9)"/><path stroke="#c4dcee" vector-effect="non-scaling-stroke" d="M188 150.8q-60.9-10.5-122.3-3.3" transform="matrix(1.29927 0 0 1.29927 59.1 -165.9)"/><path stroke="#b7d5eb" vector-effect="non-scaling-stroke" d="M65.8 147.5q-22.6 2.3-44.8 7" transform="matrix(1.29927 0 0 1.29927 59.1 -165.9)"/><path stroke="#e45454" vector-effect="non-scaling-stroke" d="m287.3 1.8-.7 1.3a1.3.3-59.7 0 0-.3.9q2 24.6-.5 53-.2 2-.6 2.5" transform="matrix(1.29927 0 0 1.29927 59.1 -165.9)"/><path stroke="#e69b9b" vector-effect="non-scaling-stroke" d="m440.5 78.7-2 2" transform="matrix(1.29927 0 0 1.29927 59.1 -165.9)"/><path stroke="#ea9f9f" vector-effect="non-scaling-stroke" d="M438.5 80.7q-26.3 26.2-53 48.2-20.7 17-46.8 36.8" transform="matrix(1.29927 0 0 1.29927 59.1 -165.9)"/><path stroke="#f1a5a5" vector-effect="non-scaling-stroke" d="M338.8 165.7q-13.2-11-30.6-10.5" transform="matrix(1.29927 0 0 1.29927 59.1 -165.9)"/><path stroke="#f0de93" vector-effect="non-scaling-stroke" d="M511.7 270h-.4a.9.8 66.1 0 1-.6-.3q-27.4-27.5-61.4-46.4" transform="matrix(1.29927 0 0 1.29927 59.1 -165.9)"/><path stroke="#f5e193" vector-effect="non-scaling-stroke" d="m449.3 223.3-1.5-1" transform="matrix(1.29927 0 0 1.29927 59.1 -165.9)"/><path stroke="#eee" vector-effect="non-scaling-stroke" d="M447.8 222.3q1.4-1.8 2-5.3 8.6-55.1-3.2-107.8-2.8-12.3-6.3-24.5-.7-2.2-1.8-4" transform="matrix(1.29927 0 0 1.29927 59.1 -165.9)"/><path stroke="#f9e597" vector-effect="non-scaling-stroke" d="M447.8 222.3q-45-24.5-96-28.6" transform="matrix(1.29927 0 0 1.29927 59.1 -165.9)"/><path stroke="#f9f9f9" vector-effect="non-scaling-stroke" d="M351.8 193.8q-1.7-16.4-13-28" transform="matrix(1.29927 0 0 1.29927 59.1 -165.9)"/><path stroke="#88bee5" vector-effect="non-scaling-stroke" d="M188 150.8q-14.9 37-46.5 61.4-9.3 7.2-20 11.7-10.3 4.4-19.8 4.8-19.3 1-30.2-12.6-5.3-6.5-8-16.3-2.7-9-2.5-18.3.3-16.3 5.5-32.8.3-.9-.8-1.2" transform="matrix(1.29927 0 0 1.29927 59.1 -165.9)"/><path stroke="#74b3e1" vector-effect="non-scaling-stroke" d="M254.8 168.5q-15.3 34.2-37 64.8-.4.4-.9 1.6-.3.8-1 1.5l-1.6 1.9q-12 16.5-26.6 33l-1 1-14.7 15.4q-6.5 6.5-13.4 12.4l-3.7 3.3q-1.8 1.7-3.8 3.1l-2.5 2.2q-1.3 1.2-2.6 2.1l-3.7 2.6q-20.4 16-43.3 28.3l-4.1 2-4.2 2q-3.6 2-6.2 3.1l-9.3 3.8q-5.5 2.3-9.4 3.6-17.4 6-31.3 8.3-6.4 1-9.3 2.5" transform="matrix(1.29927 0 0 1.29927 59.1 -165.9)"/><path stroke="#ffec9d" vector-effect="non-scaling-stroke" d="M351.8 193.8q-.7 28.1-26 39.3l-.7.2q-.7.2-.9 1" transform="matrix(1.29927 0 0 1.29927 59.1 -165.9)"/><path stroke="#f9f9f9" vector-effect="non-scaling-stroke" d="m324.2 234.3-.2-.1a.2.1 59.5 0 0-.2-.2q-17 4.5-32.8-3.3" transform="matrix(1.29927 0 0 1.29927 59.1 -165.9)"/><path stroke="#b6d7ef" vector-effect="non-scaling-stroke" d="M291 230.7q0-.5-1-1-12.5-8-17-21.6-2.4-7.7-1.7-15.9.7-8.1 4.2-15.7" transform="matrix(1.29927 0 0 1.29927 59.1 -165.9)"/><path stroke="#e5ebf0" vector-effect="non-scaling-stroke" d="M337.4 195.5a26.1 26.1 0 0 0-26-26.1 26.1 26.1 0 0 0-26.2 26.1 26.1 26.1 0 0 0 26.1 26.2 26.1 26.1 0 0 0 26.1-26.2" transform="matrix(1.29927 0 0 1.29927 59.1 -165.9)"/><path stroke="#b0d1e9" vector-effect="non-scaling-stroke" d="M291 230.7q-.7.7-1.8 2.5-18.6 30.4-41.4 62.1-37.8 52.5-83.7 98-27 26.6-60.4 51.7" transform="matrix(1.29927 0 0 1.29927 59.1 -165.9)"/><path stroke="#accde5" vector-effect="non-scaling-stroke" d="m103.7 445-11.2 8" transform="matrix(1.29927 0 0 1.29927 59.1 -165.9)"/><path stroke="#fbd53b" vector-effect="non-scaling-stroke" d="M449.3 223.3q-1 1.4-1 2-6.7 34.3-22.6 67.1-6.6 13.7-13.4 24.8l-5.1 9q-3 5.1-6.7 9.3-2.6 3-4 5.8a1.9 1.3-10.5 0 1-.7.7q-.8.5-1.5 1.5-3.4 4.7-7.7 9.7l-8.1 9.2q-7.5 8.5-16.1 15.9-.2 0-2.5 2.7-1.3 1.6-3.6 2" transform="matrix(1.29927 0 0 1.29927 59.1 -165.9)"/><path stroke="#f9e597" vector-effect="non-scaling-stroke" d="M356.3 383q-10-75.7-32-148.8" transform="matrix(1.29927 0 0 1.29927 59.1 -165.9)"/><path stroke="#f0de93" vector-effect="non-scaling-stroke" d="M361.3 489.5q1.5-52.5-5-104.5" transform="matrix(1.29927 0 0 1.29927 59.1 -165.9)"/><path stroke="#f4e297" vector-effect="non-scaling-stroke" d="M356.3 385v-2" transform="matrix(1.29927 0 0 1.29927 59.1 -165.9)"/><path stroke="#eee" vector-effect="non-scaling-stroke" d="M356.3 385q0 .5-1.2.7a1.9 1.8 19.9 0 0-1 .4q-38.8 32.9-85.8 50.2-49.5 18.1-101.9 17.1-10.5-.2-20-1-19.6-1.4-39.7-6.2l-1.8-.2q-1 0-1.2-1" transform="matrix(1.29927 0 0 1.29927 59.1 -165.9)"/></g><path fill="#f3f3f3" d="M383.4-165.9h12.3q19.5 37.6 34 77.4 20.8 60.7 30 124.3-28.2 3.6-42.7 27.7L390.1 53q-42.3-15.5-86.7-23-79.1-13.6-158.9-4.3-29.3 3-58.2 9.2 38-86.6 114-140.1 81.4-57.4 183-60.7z" stroke-width="1.3"/><path fill="#e55d5d" d="M395.7-165.9H407l25.2 2.4-.8 1.7a.4 1.7 30.3 0 0-.4 1.1q2.7 32-.7 68.9-.3 2.6-.7 3.3-14.5-39.8-34-77.4z" stroke-width="1.3"/><path fill="#e24b4b" d="M432.3-163.5q114.7 15 196.5 96.8 2 2 2.6 3.1l-2.6 2.6Q594.7-27 560 1.7q-26.9 22-60.7 47.7-17-14.2-39.6-13.6-9-63.6-29.9-124.3.4-.7.7-3.3 3.4-36.9.7-68.9a.4 1.7 30.3 0 1 .4-1.1z" stroke-width="1.3"/><path fill="#eaeaea" d="M631.4-63.6q88.5 93.4 93 223.3V174l-.4 11h-.5a1.2 1 66.1 0 1-.8-.4q-35.6-35.9-79.8-60.4l-2-1.3q1.8-2.3 2.6-6.8 11.3-71.6-4.1-140-3.7-16.1-8.3-32-.8-2.7-2.3-5.1z" stroke-width="1.3"/><path fill="#f2f2f2" d="M628.8-61q1.5 2.4 2.3 5.2 4.6 15.8 8.3 31.9 15.4 68.4 4 140-.7 4.5-2.5 6.8-58.4-31.7-124.7-37-2.2-21.3-17-36.5Q533 23.8 560 1.7q34.8-28.7 69-62.7z" stroke-width="1.3"/><path fill="#95c5e8" d="M303.4 30Q284 78.3 243 110q-12 9.3-26 15.2-13.4 5.6-25.7 6.2-25.1 1.3-39.3-16.3-6.9-8.6-10.5-21.2-3.4-11.7-3.1-23.9.4-21.1 7.1-42.5.4-1.2-1-1.7 79.8-9.3 158.9 4.3z" stroke-width="1.3"/><path fill="#7bb7e2" d="M144.5 25.7q1.4.5 1 1.7-6.7 21.4-7.1 42.5-.3 12.2 3 23.9 3.7 12.6 10.6 21.2 14.2 17.6 39.3 16.3 12.3-.6 25.6-6.2 14-6 26-15.2Q284 78.3 303.5 30q44.4 7.5 86.7 23-19.9 44.5-48 84.2-.5.6-1.1 2-.5 1.2-1.3 2l-2.2 2.5q-15.6 21.5-34.6 42.8l-1.2 1.4q-9.8 10.4-19.2 20-8.3 8.5-17.4 16.2l-4.7 4.2q-2.3 2.2-5 4.1-1.5 1.1-3.3 2.8-1.6 1.5-3.4 2.8l-4.7 3.4Q217.4 262 187.8 278l-5.4 2.7-5.4 2.7q-4.7 2.5-8 4l-12.2 4.9q-7 3-12.2 4.7-22.6 7.8-40.7 10.7-8.3 1.4-12 3.3-29.7-61.7-32.8-130.4v-29.2q3-60.8 27.2-116.5 28.9-6.2 58.2-9.2Z" stroke-width="1.3"/><path fill="#fff" d="M459.6 35.8q22.5-.6 39.6 13.6 14.8 15.2 17 36.5-1 36.6-33.7 51l-1 .4q-1 .2-1.2 1.2l-.2-.1a.3.2 59.5 0 0-.2-.2q-22.2 5.8-42.7-4.3-.1-.6-1.2-1.3-16.3-10.3-22.1-28.1-3.3-10-2.3-20.6.9-10.6 5.4-20.4 14.5-24 42.6-27.7zm38 52.4a34 34 0 0 0-34-34 34 34 0 0 0-34 34 34 34 0 0 0 34 34 34 34 0 0 0 34-34z" stroke-width="1.3"/><path fill="#6dafdf" d="M390.1 53 417 63.5q-4.5 9.8-5.4 20.4-1 10.6 2.3 20.6 5.8 17.8 22 28 1.2.8 1.3 1.4-1 1-2.4 3.2-24 39.5-53.7 80.7Q332 286 272.3 345.1q-35 34.6-78.4 67.2l-14.6 10.3Q123.4 376.4 91.9 311q3.7-2 12-3.3 18.1-3 40.7-10.7 5.1-1.8 12.2-4.7l12.1-5q3.4-1.4 8.1-4l5.4-2.6 5.4-2.7q29.6-15.9 56.2-36.6l4.7-3.4q1.8-1.3 3.4-2.8 1.8-1.7 3.4-2.8 2.6-1.9 4.9-4l4.7-4.3q9.1-7.7 17.4-16.2 9.4-9.6 19.2-20l1.2-1.4q19-21.3 34.6-42.8l2.2-2.4q.8-1 1.3-2 .6-1.5 1-2.1 28.2-39.7 48.1-84.2z" stroke-width="1.3"/><circle fill="#cbd6e0" cx="463.6" cy="88.2" r="34" stroke-width="1.3"/><path fill="#ffd83b" d="M516.2 85.9q66.3 5.3 124.7 37l2 1.3q-1.3 1.9-1.4 2.6-8.7 44.7-29.3 87.3-8.6 17.8-17.4 32.2l-6.6 11.5q-3.9 6.8-8.7 12.2-3.4 3.8-5.3 7.6a1.7 2.5 79.5 0 1-.8.9q-1.1.6-2 2-4.4 6-10 12.5L551 305q-9.8 11-21 20.6l-3.1 3.5q-1.8 2.1-4.8 2.7-13-98.4-41.7-193.3.3-1 1.2-1.2l1-.3q32.7-14.5 33.7-51.1z" stroke-width="1.3"/><path fill="#f6d13b" d="M642.9 124.2q44.2 24.5 79.8 60.4a1.2 1 66.1 0 0 .8.3h.5q-3.7 69-34 129.4-53.2 106-161.5 155.8 2-68.1-6.5-135.7v-2.6q3-.6 4.8-2.7l3.1-3.5q11.2-9.6 21-20.6l10.5-12q5.6-6.4 10-12.6.9-1.3 2-2a1.7 2.5 79.5 0 0 .8-.8q1.9-3.8 5.3-7.6 4.8-5.4 8.7-12.2l6.6-11.5q8.8-14.4 17.4-32.2 20.6-42.6 29.3-87.3.1-.7 1.4-2.6z" stroke-width="1.3"/><path fill="#f2f2f2" d="M437.2 133.9q20.5 10.1 42.7 4.3a.3.2 59.5 0 1 .2.2h.2q28.8 95 41.7 193.4v2.6q0 .5-1.6.8a2.4 2.4 19.9 0 0-1.1.5q-50.5 42.8-111.7 65.3-64.2 23.5-132.2 22.3-13.8-.3-26-1.3-25.6-2-51.7-8.1-1.1-.3-2.3-.3-1.4 0-1.5-1.3 43.4-32.6 78.4-67.2 59.7-59 108.8-127.3 29.6-41.2 53.7-80.7 1.4-2.3 2.4-3.2z" stroke-width="1.3"/><path fill="#eaeaea" d="M522 334.4q8.5 67.6 6.5 135.7-61.9 27.5-129.7 29.3h-14.6q-115.9-4-205-76.8l14.7-10.3q.1 1.3 1.5 1.3 1.2 0 2.3.3 26.1 6.1 51.7 8.1 12.2 1 26 1.3 68 1.2 132.2-22.3 61.2-22.5 111.7-65.3a2.4 2.4 19.9 0 1 1.1-.5q1.7-.3 1.6-.8z" stroke-width="1.3"/></g></svg>